# xmcd CD database file
#
# Track frame offsets:
#	150
#	14424
#	26879
#	40321
#	54531
#	68204
#	82645
#	99874
#	113409
#	126823
#	140701
#	152724
#	165570
#	180051
#	193600
#	205293
#	217439
#	232445
#	246975
#	261364
#
# Disc length: 3684 seconds
#
# Revision: 0
# Processed by: cddbd v1.5.2PL0 Copyright (c) Steve Scherf et al.
# Submitted via: CDex 1.51
#
DISCID=1e0e6214
DTITLE=Orquesta Aragon - The 70th Anniversary Album CD1
DYEAR=2009
DGENRE=Salsa
TTITLE0=Y SoIo Tu Y Yo
TTITLE1=No Eres Comprensible
TTITLE2=Nuestras Penas
TTITLE3=Caserita Villareña
TTITLE4=Repicando Bata
TTITLE5=Si Envidia
TTITLE6=Espero Tu Carta
TTITLE7=Le Dije A Una Rosa
TTITLE8=EI Baile Del Suavito
TTITLE9=Naranjo Y Lucas
TTITLE10=Comelón
TTITLE11=BeIla Muñequita
TTITLE12=Yo No Me Lo Robe Vigilante
TTITLE13=Tremenda Moral
TTITLE14=Mis Pensamientos
TTITLE15=Eso Se Ti
TTITLE16=Osiri
TTITLE17=Que Bien Estamos
TTITLE18=Pregúntame Como Estoy
TTITLE19=Señior Juez
EXTD=YEAR: 2009
EXTT0=
EXTT1=
EXTT2=
EXTT3=
EXTT4=
EXTT5=
EXTT6=
EXTT7=
EXTT8=
EXTT9=
EXTT10=
EXTT11=
EXTT12=
EXTT13=
EXTT14=
EXTT15=
EXTT16=
EXTT17=
EXTT18=
EXTT19=
PLAYORDER=
